<svg width="40" height="40" viewBox="0 0 40 40" fill="none" xmlns="http://www.w3.org/2000/svg">
<rect width="40" height="40" fill="#111111"/>
<path d="M30.9356 18.0433V18.055H19.9584L30.9356 18.0433Z" fill="white"/>
<path d="M21.3937 33.9999L13.1981 33.9415C12.593 33.937 12.1049 33.4443 12.1049 32.8374C12.1049 32.2247 12.6024 31.7287 13.2133 31.7332L21.7157 31.7921C22.6696 31.7921 23.3933 31.616 23.886 31.2638C24.5569 30.9116 25.0705 30.2307 25.427 29.2213C25.5058 28.8795 25.5448 28.5852 25.5448 28.3382C25.5448 27.4811 25.225 26.6766 24.5855 25.925C24.1663 25.5199 23.7731 25.2521 23.4059 25.1205C23.0024 24.9364 22.4493 24.8443 21.7466 24.8443H16.432V22.636H21.4958C22.7905 22.636 23.7498 22.7937 24.3737 23.109C25.7683 23.719 26.7665 24.718 27.3693 26.1061C27.6631 26.8001 27.8096 27.5386 27.8096 28.3224C27.8096 30.0155 27.1414 31.4615 25.8046 32.6604C24.929 33.323 24.1377 33.7147 23.4301 33.8355C23.0682 33.9447 22.3897 33.9999 21.3937 33.9999Z" fill="white"/>
<path d="M27.0649 24.8798L35.9364 24.8721V27.0786L28.052 27.0854C27.979 26.7278 27.8715 26.3806 27.7291 26.0437C27.5446 25.6192 27.3234 25.2315 27.0649 24.8798Z" fill="white"/>
<path d="M24.5935 33.9385C24.452 33.9465 24.3105 33.9542 24.1689 33.9623C24.5868 33.805 24.9209 33.6321 25.1641 33.492C25.9232 33.0544 26.4848 32.4893 26.4852 32.4889C26.6205 32.351 26.7118 32.2477 26.7759 32.1681C26.9187 31.9916 27.0213 31.8317 27.0903 31.7149C28.4056 31.7149 29.7209 31.7149 31.0358 31.7149C32.6687 31.7149 34.3015 31.7149 35.9344 31.7149C35.9348 32.4552 35.9353 33.195 35.9357 33.9353L24.5935 33.9385Z" fill="white"/>
<path d="M36 18V20.206L28.2984 20.2249L27.851 20.2271V20.2285H18.2089C17.2804 20.2285 16.5702 20.3943 16.0769 20.7253C16.0464 20.746 16.0154 20.7648 15.9831 20.7828C15.3488 21.1341 14.8578 21.7836 14.5101 22.7319C14.494 22.7764 14.4805 22.8226 14.4701 22.8689C14.4014 23.1816 14.3677 23.452 14.3677 23.6829C14.3677 24.5211 14.6745 25.3085 15.2877 26.0457C15.3155 26.0794 15.3461 26.1113 15.3775 26.1414C15.78 26.5214 16.1587 26.7743 16.5127 26.9005C16.9174 27.0847 17.4726 27.1763 18.177 27.1763H22.4044C23.0144 27.1763 23.5086 27.6709 23.5086 28.2805C23.5086 28.5855 23.385 28.8617 23.1851 29.0616C22.9852 29.2615 22.7094 29.3846 22.4044 29.3846H18.4294C17.1308 29.3846 16.1681 29.2274 15.5428 28.9116C14.144 28.302 13.1428 27.3025 12.5381 25.915C12.2434 25.2205 12.0966 24.482 12.0966 23.6981C12.0966 22.0231 12.7528 20.5892 14.0663 19.3979C14.0937 19.3732 14.1225 19.3494 14.1521 19.3274C14.993 18.7003 15.7558 18.3225 16.4412 18.1941C16.4731 18.1882 16.5046 18.1806 16.536 18.172C16.9093 18.071 17.5741 18.0202 18.5314 18.0202L19.9733 18.0189L36 18Z" fill="white"/>
</svg>
